<?xml version="1.0" standalone="no"?>
<!DOCTYPE svg PUBLIC "-//W3C//DTD SVG 20010904//EN"
 "http://www.w3.org/TR/2001/REC-SVG-20010904/DTD/svg10.dtd">
<svg version="1.0" xmlns="http://www.w3.org/2000/svg"
 width="500.000000pt" height="500.000000pt" viewBox="0 0 500.000000 500.000000"
 preserveAspectRatio="xMidYMid meet">
<metadata>
Created by potrace 1.14, written by Peter Selinger 2001-2017
</metadata>
<g transform="translate(0.000000,500.000000) scale(0.100000,-0.100000)"
fill="#000000" stroke="none">
<path d="M0 2500 l0 -2500 2500 0 2500 0 0 2500 0 2500 -2500 0 -2500 0 0
-2500z m608 930 c18 -11 39 -35 47 -52 21 -45 353 -1215 371 -1308 22 -110 24
-112 45 -32 29 113 428 1324 445 1350 30 47 72 62 169 62 101 0 143 -17 168
-67 17 -32 405 -1220 436 -1332 11 -41 22 -75 24 -77 2 -2 8 27 15 64 16 98
367 1328 387 1358 30 46 70 55 244 52 l158 -3 -294 -945 c-161 -520 -302 -975
-314 -1013 l-20 -67 -171 2 -170 3 -220 685 c-120 377 -227 714 -237 750 l-18
65 -12 -40 c-6 -22 -114 -359 -240 -750 l-229 -710 -170 -3 -170 -2 -26 77
c-14 43 -151 488 -306 988 -154 501 -285 922 -290 938 l-9 27 177 0 c159 0
180 -2 210 -20z m3547 -13 c316 -84 465 -259 465 -545 0 -175 -51 -304 -165
-418 -52 -52 -94 -82 -154 -113 -46 -22 -90 -41 -97 -41 -23 0 -16 -11 35 -59
31 -29 141 -182 300 -417 138 -205 254 -380 257 -389 6 -16 -7 -17 -187 -13
-172 3 -198 6 -227 23 -25 15 -94 113 -265 374 -156 239 -242 360 -262 373
-24 15 -51 18 -142 18 l-113 0 0 -395 0 -395 -185 0 -185 0 0 1016 0 1016 413
-4 c409 -4 413 -4 512 -31z"/>
<path d="M3607 3153 c-4 -3 -7 -154 -7 -335 l0 -328 168 0 c230 0 323 27 402
117 61 70 83 139 78 248 -5 107 -25 153 -91 211 -56 49 -120 72 -233 84 -103
11 -308 13 -317 3z"/>
</g>
</svg>
