<?xml version="1.0" standalone="no"?>
<!DOCTYPE svg PUBLIC "-//W3C//DTD SVG 20010904//EN"
 "http://www.w3.org/TR/2001/REC-SVG-20010904/DTD/svg10.dtd">
<svg version="1.0" xmlns="http://www.w3.org/2000/svg"
 width="500.000000pt" height="500.000000pt" viewBox="0 0 500.000000 500.000000"
 preserveAspectRatio="xMidYMid meet">
<metadata>
Created by potrace 1.14, written by Peter Selinger 2001-2017
</metadata>
<g transform="translate(0.000000,500.000000) scale(0.100000,-0.100000)"
fill="#000000" stroke="none">
<path d="M2370 4385 c-332 -41 -641 -166 -903 -364 -78 -59 -264 -218 -286
-245 -7 -9 -22 -16 -32 -16 -11 0 -27 -9 -36 -20 -10 -11 -25 -20 -34 -20 -9
0 -23 -7 -30 -17 -8 -9 -59 -57 -114 -107 -55 -50 -108 -101 -119 -114 -18
-23 -18 -24 18 -77 21 -29 60 -79 87 -110 29 -33 49 -66 49 -80 0 -31 80 -148
276 -400 55 -71 149 -195 209 -275 59 -80 130 -173 157 -207 l49 -62 -15 -50
c-13 -46 -13 -52 4 -87 22 -42 19 -51 -47 -150 -33 -50 -33 -52 -21 -98 12
-45 11 -50 -16 -99 -96 -176 -117 -220 -137 -292 -38 -138 -14 -267 72 -391
130 -188 320 -302 589 -354 52 -11 95 -18 95 -17 2 18 30 46 61 62 32 16 59
19 144 19 205 -2 400 -74 400 -149 0 -24 3 -26 28 -21 15 3 52 8 82 11 222 27
412 93 551 192 26 18 49 33 53 33 21 0 -25 -110 -61 -142 -26 -24 -104 -58
-134 -58 -14 0 -30 5 -36 11 -18 18 -46 2 -40 -22 5 -20 5 -20 -28 0 -42 24
-61 11 -40 -28 21 -42 87 -73 155 -73 131 0 232 67 295 195 48 99 58 165 50
325 -5 99 -4 136 5 147 17 21 7 19 -49 -9 -70 -36 -159 -56 -245 -56 -115 0
-116 27 -2 148 141 149 162 304 69 515 -34 78 -35 81 -19 114 22 46 22 48 -26
121 l-42 65 22 38 c12 21 22 45 22 55 0 9 -23 48 -51 86 l-51 70 51 45 c29 25
61 64 73 87 27 52 35 178 18 283 -23 146 -114 392 -231 625 -27 54 -49 100
-49 103 0 10 216 -107 300 -163 183 -121 360 -299 550 -552 83 -111 81 -108
70 -69 -5 19 -17 72 -25 119 -34 180 -125 411 -226 578 -111 181 -321 398
-478 494 -254 156 -600 243 -881 224 -436 -30 -787 -183 -1139 -494 l-59 -52
-18 52 -17 52 60 57 c245 229 589 408 923 479 161 35 425 39 585 11 369 -67
636 -207 882 -464 254 -267 398 -618 420 -1027 5 -96 8 -109 38 -158 18 -29
35 -50 38 -45 2 4 8 62 11 128 36 633 -324 1249 -899 1538 -278 139 -601 192
-925 152z m-1262 -817 c12 -24 30 -54 39 -67 17 -24 17 -24 -4 -13 -12 7 -32
12 -45 12 -18 0 -20 2 -8 10 8 5 12 10 8 10 -12 0 -83 -51 -91 -66 -12 -22
-21 -17 -35 19 -13 32 -12 32 45 84 32 29 60 53 64 53 3 0 15 -19 27 -42z
m736 -114 c-129 -216 -220 -465 -236 -647 -3 -24 -15 -11 -109 115 -58 79
-119 163 -136 188 l-30 45 84 65 c47 36 121 93 165 127 77 59 298 196 305 189
2 -2 -17 -39 -43 -82z m-644 -30 c10 -28 10 -46 1 -75 -15 -51 -44 -69 -109
-69 -46 0 -58 4 -83 29 -16 17 -29 40 -28 53 0 22 1 22 9 2 4 -11 23 -33 41
-48 27 -23 40 -27 72 -23 74 10 111 73 83 141 -8 20 -11 34 -6 31 5 -3 14 -22
20 -41z m1336 -356 c9 -127 21 -111 23 30 l1 82 28 0 c29 0 211 -34 275 -51
l38 -10 -51 -34 c-27 -18 -88 -57 -135 -85 -47 -28 -90 -60 -95 -70 -39 -73
51 -160 165 -160 41 0 114 38 139 73 17 23 22 47 24 127 l4 99 27 -32 c37 -42
51 -70 51 -102 0 -27 -32 -98 -58 -128 -24 -28 -5 -33 24 -6 l27 24 -18 -28
c-11 -17 -48 -42 -97 -66 -62 -30 -74 -40 -58 -44 12 -3 42 1 67 8 45 14 45
14 27 -7 -35 -38 -52 -41 -126 -22 -69 18 -70 18 -84 -1 -18 -24 -11 -57 18
-98 26 -36 26 -73 -1 -125 -37 -73 -91 -95 -91 -38 0 42 -9 68 -21 60 -5 -3
-9 2 -9 10 0 9 -4 16 -9 16 -13 0 -31 -50 -39 -105 -4 -30 -13 -50 -22 -52
-13 -4 -13 -3 -1 5 12 9 12 13 -3 28 -15 14 -19 15 -27 3 -5 -8 -6 -21 -3 -29
4 -13 4 -13 -9 0 -8 8 -19 42 -26 74 -11 59 -24 78 -46 70 -16 -6 -37 -68 -29
-88 5 -12 0 -16 -20 -16 -21 0 -33 11 -57 48 -43 67 -44 82 -14 142 23 46 25
56 14 82 -13 33 -28 34 -116 7 -38 -12 -44 -11 -77 12 -48 33 -56 53 -12 32
23 -11 45 -13 70 -9 47 9 46 26 -2 26 -21 0 -49 7 -62 17 -38 25 -80 66 -80
77 0 6 5 5 12 -2 7 -7 18 -12 26 -12 9 0 5 11 -12 31 -49 58 -58 84 -45 132 9
35 55 127 63 127 2 0 1 -33 -2 -72 -5 -92 11 -153 52 -194 99 -99 296 -53 296
68 0 43 -20 62 -125 118 -44 24 -98 55 -120 70 -22 15 -49 29 -60 32 -11 2 48
16 130 32 83 15 157 29 165 31 8 1 31 3 52 4 l36 1 8 -112z m-1141 -118 c10
-11 16 -20 13 -20 -3 0 -13 9 -23 20 -10 11 -16 20 -13 20 3 0 13 -9 23 -20z
m86 -107 c13 -16 12 -17 -3 -4 -10 7 -18 15 -18 17 0 8 8 3 21 -13z m30 -40
c13 -16 12 -17 -3 -4 -10 7 -18 15 -18 17 0 8 8 3 21 -13z m94 -123 c10 -11
16 -20 13 -20 -3 0 -13 9 -23 20 -10 11 -16 20 -13 20 3 0 13 -9 23 -20z m371
-412 c4 -6 3 -8 -4 -4 -5 3 -25 -6 -44 -20 l-33 -26 33 31 c36 35 38 36 48 19z
m-93 -73 c-3 -9 -8 -14 -10 -11 -3 3 -2 9 2 15 9 16 15 13 8 -4z m494 -201
c-3 -3 -12 -4 -19 -1 -8 3 -5 6 6 6 11 1 17 -2 13 -5z m633 -697 c0 -2 -10
-12 -22 -23 l-23 -19 19 23 c18 21 26 27 26 19z m-55 -47 c-3 -5 -14 -10 -23
-9 -14 0 -13 2 3 9 27 11 27 11 20 0z m212 -100 c116 -36 247 -37 393 -4 18 4
21 3 10 -4 -32 -20 -154 -35 -244 -29 -137 8 -279 60 -294 107 -3 8 11 1 31
-17 22 -19 64 -41 104 -53z m403 -345 c0 -8 -2 -15 -4 -15 -2 0 -6 7 -10 15
-3 8 -1 15 4 15 6 0 10 -7 10 -15z m-205 -175 c-3 -5 -14 -10 -23 -10 -15 0
-15 2 -2 10 20 13 33 13 25 0z"/>
<path d="M2966 3025 c4 -8 11 -15 16 -15 6 0 5 6 -2 15 -7 8 -14 15 -16 15 -2
0 -1 -7 2 -15z"/>
<path d="M3005 2960 c3 -5 8 -10 11 -10 2 0 4 5 4 10 0 6 -5 10 -11 10 -5 0
-7 -4 -4 -10z"/>
<path d="M2536 2783 c2 -16 1 -20 -2 -10 -7 23 -16 22 -42 -6 -30 -32 -42 -78
-32 -122 23 -101 115 -110 140 -13 14 51 8 86 -25 138 -29 47 -44 51 -39 13z"/>
<path d="M3429 794 c-13 -14 -46 -39 -74 -55 -29 -17 -42 -29 -32 -29 33 0 85
31 113 67 31 41 27 53 -7 17z"/>
</g>
</svg>
